<svg xmlns="http://www.w3.org/2000/svg" width="54.248" height="54.248" viewBox="0 0 54.248 54.248">
  <path id="Icon_awesome-linkedin" data-name="Icon awesome-linkedin" d="M50.373,2.25H3.863A3.892,3.892,0,0,0,0,6.161V52.587A3.892,3.892,0,0,0,3.863,56.5h46.51a3.9,3.9,0,0,0,3.875-3.911V6.161A3.9,3.9,0,0,0,50.373,2.25ZM16.4,48.748H8.355V22.859h8.052V48.748Zm-4.02-29.425a4.662,4.662,0,1,1,4.662-4.662,4.664,4.664,0,0,1-4.662,4.662ZM46.535,48.748h-8.04V36.155c0-3-.061-6.866-4.178-6.866-4.19,0-4.831,3.269-4.831,6.648V48.748h-8.04V22.859h7.713V26.4h.109a8.469,8.469,0,0,1,7.617-4.178c8.137,0,9.651,5.364,9.651,12.339Z" transform="translate(0 -2.25)"/>
</svg>
