<svg xmlns="http://www.w3.org/2000/svg" width="54.26" height="54.248" viewBox="0 0 54.26 54.248">
  <path id="Icon_awesome-instagram" data-name="Icon awesome-instagram" d="M27.131,15.453A13.909,13.909,0,1,0,41.04,29.362,13.887,13.887,0,0,0,27.131,15.453Zm0,22.951a9.042,9.042,0,1,1,9.042-9.042A9.059,9.059,0,0,1,27.131,38.4Zm17.722-23.52a3.244,3.244,0,1,1-3.244-3.244A3.237,3.237,0,0,1,44.853,14.884Zm9.212,3.293c-.206-4.346-1.2-8.2-4.382-11.367S42.662,2.646,38.316,2.428c-4.479-.254-17.9-.254-22.382,0C11.6,2.634,7.751,3.627,4.567,6.8S.4,13.819.185,18.165c-.254,4.479-.254,17.9,0,22.382.206,4.346,1.2,8.2,4.382,11.367s7.021,4.164,11.367,4.382c4.479.254,17.9.254,22.382,0,4.346-.206,8.2-1.2,11.367-4.382s4.164-7.021,4.382-11.367c.254-4.479.254-17.891,0-22.37ZM48.278,45.353a9.155,9.155,0,0,1-5.157,5.157C39.551,51.926,31.077,51.6,27.131,51.6S14.7,51.913,11.14,50.509a9.155,9.155,0,0,1-5.157-5.157C4.567,41.782,4.894,33.308,4.894,29.362S4.579,16.93,5.984,13.371A9.155,9.155,0,0,1,11.14,8.215C14.711,6.8,23.185,7.125,27.131,7.125S39.563,6.81,43.122,8.215a9.155,9.155,0,0,1,5.157,5.157c1.416,3.571,1.089,12.044,1.089,15.991S49.695,41.794,48.278,45.353Z" transform="translate(0.005 -2.238)"/>
</svg>
