<svg xmlns="http://www.w3.org/2000/svg" width="54.248" height="54.248" viewBox="0 0 54.248 54.248">
  <path id="Icon_awesome-facebook-square" data-name="Icon awesome-facebook-square" d="M48.435,2.25H5.812A5.812,5.812,0,0,0,0,8.062V50.685A5.812,5.812,0,0,0,5.812,56.5H22.432V38.055H14.8V29.374h7.629V22.758c0-7.526,4.48-11.683,11.342-11.683a46.215,46.215,0,0,1,6.723.586v7.386H36.71c-3.731,0-4.894,2.315-4.894,4.69v5.637h8.328l-1.332,8.681h-7V56.5H48.435a5.812,5.812,0,0,0,5.812-5.812V8.062A5.812,5.812,0,0,0,48.435,2.25Z" transform="translate(0 -2.25)"/>
</svg>
